HIERARCHY
ROOT Hips
{
	OFFSET -3.958830 18.904000 13.208200
	CHANNELS 6 Xposition Yposition Zposition Zrotation Yrotation Xrotation 
	JOINT LHipJoint
	{
		OFFSET 0.000000 0.000000 0.000000
		CHANNELS 3 Zrotation Yrotation Xrotation
		JOINT LeftUpLeg
		{
			OFFSET 1.800000 -1.400000 0.085000
			CHANNELS 3 Zrotation Yrotation Xrotation
			JOINT LeftLeg
			{
				OFFSET 2.215000 -6.000000 0.000000
				CHANNELS 3 Zrotation Yrotation Xrotation
				JOINT LeftFoot
				{
					OFFSET 2.500000 -6.900000 0.000000
					CHANNELS 3 Zrotation Yrotation Xrotation
					JOINT LeftToeBase
					{
						OFFSET 0.200000 -0.500000 1.950000
						CHANNELS 3 Zrotation Yrotation Xrotation
						End Site
						{
							OFFSET 0.000000 0.000000 0.000000
						}
					}
				}
			}
		}
	}
	JOINT RHipJoint
	{
		OFFSET 0.000000 0.000000 0.000000
		CHANNELS 3 Zrotation Yrotation Xrotation
		JOINT RightUpLeg
		{
			OFFSET -1.800000 -1.400000 0.085000
			CHANNELS 3 Zrotation Yrotation Xrotation
			JOINT RightLeg
			{
				OFFSET -2.215000 -6.000000 0.000000
				CHANNELS 3 Zrotation Yrotation Xrotation
				JOINT RightFoot
				{
					OFFSET -2.500000 -6.900000 0.000000
					CHANNELS 3 Zrotation Yrotation Xrotation
					JOINT RightToeBase
					{
						OFFSET -0.200000 -0.500000 1.950000
						CHANNELS 3 Zrotation Yrotation Xrotation
						End Site
						{
							OFFSET 0.000000 0.000000 0.000000
						}
					}
				}
			}
		}
	}
	JOINT LowerBack
	{
		OFFSET 0.000000 0.000000 0.000000
		CHANNELS 3 Zrotation Yrotation Xrotation
		JOINT Spine
		{
			OFFSET -0.087000 1.940000 -0.288900
			CHANNELS 3 Zrotation Yrotation Xrotation
			JOINT Spine1
			{
				OFFSET 0.000000 1.950000 0.060000
				CHANNELS 3 Zrotation Yrotation Xrotation
				JOINT Neck
				{
					OFFSET 0.000000 0.000000 0.000000
					CHANNELS 3 Zrotation Yrotation Xrotation
					JOINT Neck1
					{
						OFFSET 0.000000 1.600000 0.340000
						CHANNELS 3 Zrotation Yrotation Xrotation
						JOINT Head
						{
							OFFSET 0.000000 1.667000 -0.240000
							CHANNELS 3 Zrotation Yrotation Xrotation
							End Site
							{
								OFFSET 0.000000 0.000000 0.000000
							}
						}
					}
				}
				JOINT LeftShoulder
				{
					OFFSET 0.000000 0.000000 0.000000
					CHANNELS 3 Zrotation Yrotation Xrotation
					JOINT LeftArm
					{
						OFFSET 2.700000 1.550000 -0.730000
						CHANNELS 3 Zrotation Yrotation Xrotation
						JOINT LeftForeArm
						{
							OFFSET 5.450000 0.000000 0.000000
							CHANNELS 3 Zrotation Yrotation Xrotation
							JOINT LeftHand
							{
								OFFSET 3.450000 0.000000 0.000000
								CHANNELS 3 Zrotation Yrotation Xrotation
								JOINT LeftHandIndex1
								{
									OFFSET 0.750000 0.000000 0.000000
									CHANNELS 3 Zrotation Yrotation Xrotation
									End Site
									{
										OFFSET 0.000000 0.000000 0.000000
									}
								}
							}
						}
					}
				}
				JOINT RightShoulder
				{
					OFFSET 0.000000 0.000000 0.000000
					CHANNELS 3 Zrotation Yrotation Xrotation
					JOINT RightArm
					{
						OFFSET -2.700000 1.550000 -0.730000
						CHANNELS 3 Zrotation Yrotation Xrotation
						JOINT RightForeArm
						{
							OFFSET -5.450000 0.000000 0.000000
							CHANNELS 3 Zrotation Yrotation Xrotation
							JOINT RightHand
							{
								OFFSET -3.450000 0.000000 0.000000
								CHANNELS 3 Zrotation Yrotation Xrotation
								JOINT RightHandIndex1
								{
									OFFSET -0.750000 0.000000 0.000000
									CHANNELS 3 Zrotation Yrotation Xrotation
									End Site
									{
										OFFSET 0.000000 0.000000 0.000000
									}
								}
							}
						}
					}
				}
			}
		}
	}
}
MOTION
Frames: 13
Frame Time: 0.016667
-2.487120 17.554030 -3.181420 -3.716142 -13.705154 -3.440415 -14.896030 11.862105 3.674537 28.087945 0.222870 -20.391950 -12.843976 16.747147 39.355516 0.615230 8.993168 0.879581 0.951500 1.214110 0.651210 18.668737 -9.839853 4.035529 -12.375767 12.004212 -34.077488 12.706493 -14.071702 49.961452 -1.551232 -7.856230 1.177100 0.477250 -0.470570 0.194840 -4.518873 0.429156 -8.681563 24.087077 -10.011858 29.594334 -17.613687 -2.308843 15.526598 13.065646 4.207542 -19.819144 21.769910 -21.173562 83.667386 1.034110 -15.724170 -17.652190 -37.226134 -28.276295 11.105941 -36.207430 -0.596654 -5.496202 0.138992 -8.959276 -1.089223 -2.821756 3.090615 0.528490 -0.540180 0.827540 0.202040 11.956241 32.861407 7.405486 53.537655 32.396015 2.367164 -2.610612 15.230187 -1.058404 2.643751 -1.291374 0.380770 0.211330 -0.410790 0.198810 
-2.407810 17.551110 -3.210530 -3.980651 -13.468937 -3.498337 -14.937472 11.779460 3.833419 28.843238 0.260152 -20.768952 -14.085482 17.392250 39.386341 0.629900 9.222234 0.787759 0.982010 1.252810 0.703240 18.648986 -9.703117 3.998731 -13.558272 11.941920 -33.876587 14.352525 -14.589636 48.802892 -1.567797 -7.840552 1.166283 0.502590 -0.499240 0.197260 -4.452035 0.285070 -8.741331 24.359908 -10.311594 30.991293 -18.085074 -1.985017 16.008711 13.428118 4.419783 -20.195527 21.386682 -20.869304 84.548354 -0.354470 -15.101030 -18.664220 -37.383533 -29.033326 11.145606 -34.838296 -1.148897 -5.288093 -0.285929 -8.710299 -1.065230 -2.823038 3.050083 0.544480 -0.547670 0.857200 0.187310 11.305254 33.563890 7.413283 52.169689 32.366717 1.953641 -2.582564 15.734723 -1.107972 2.618526 -1.265063 0.384210 0.232250 -0.416850 0.181190 
-2.321060 17.545840 -3.237410 -4.256349 -13.213993 -3.384903 -14.956282 11.655814 3.977781 29.303278 0.243614 -21.331684 -15.358148 17.963999 39.313840 0.661940 9.423583 0.712324 0.985960 1.257140 0.724100 18.651062 -9.603572 3.978724 -14.840392 11.806930 -33.794180 16.143122 -15.067273 47.309767 -1.567620 -7.806331 1.167798 0.493670 -0.502430 0.224290 -4.449229 0.255981 -8.794899 24.837091 -10.569711 31.949954 -18.685504 -1.628700 16.116616 13.622656 4.416158 -20.241235 20.246547 -20.150734 85.460899 -1.906320 -14.733920 -18.939520 -37.108905 -29.364722 11.001443 -34.170686 -1.730786 -5.115681 -0.893125 -8.504201 -1.049539 -2.857845 3.023741 0.541420 -0.535920 0.872420 0.173380 10.587106 33.798459 7.425213 51.282960 31.882556 1.562495 -2.182976 16.314477 -1.093466 2.596607 -1.238337 0.404060 0.235880 -0.401400 0.179070 
-2.246660 17.544200 -3.264530 -4.499825 -13.031087 -3.449511 -14.972154 11.547670 4.092667 29.719340 0.316534 -21.761687 -16.369232 18.477975 39.370326 0.636459 9.646393 0.630970 0.992430 1.240470 0.762090 18.654095 -9.530106 3.958521 -15.837655 11.853326 -33.503093 17.528047 -15.331631 46.114061 -1.584592 -7.760601 1.168083 0.493120 -0.498280 0.251320 -4.449153 0.254730 -8.836990 25.241760 -10.543768 33.187737 -19.098744 -0.966159 15.789444 13.569718 4.484129 -20.129395 19.603996 -19.312832 86.481343 -2.725740 -13.643530 -20.061310 -36.558373 -29.571810 10.700130 -33.818870 -2.170799 -5.020188 -2.003875 -8.685768 -1.090159 -2.892953 2.946635 0.599920 -0.529640 0.898880 0.157120 10.077735 33.749005 7.422406 51.107326 31.156960 1.232738 -2.229765 16.138530 -1.061810 2.556893 -1.190573 0.381290 0.269160 -0.375490 0.147060 
-2.183750 17.533770 -3.281650 -4.215978 -11.721299 -2.996258 -14.988051 11.425765 4.190823 29.368122 -0.047005 -23.069691 -16.996462 18.641768 39.496110 0.631091 9.740086 0.607248 0.953290 1.182120 0.787850 18.657655 -9.473475 3.955290 -17.403699 11.276487 -33.957616 18.578369 -15.789369 45.308865 -1.567495 -7.804103 1.142368 0.460800 -0.488390 0.261070 -4.436347 0.237210 -8.896368 24.692384 -10.057099 33.074822 -18.533816 -0.817412 15.046145 13.298595 4.235926 -19.381791 18.450979 -18.130965 86.872760 -4.971530 -12.228160 -18.931350 -35.373381 -28.877649 10.147365 -35.167916 -2.827981 -4.940487 -2.560431 -8.679930 -1.087244 -2.974077 2.881956 0.594990 -0.500700 0.891080 0.126160 9.571622 32.759193 7.481179 52.730234 29.669186 0.659357 -2.618666 16.487973 -1.253203 2.553285 -1.175688 0.365260 0.275430 -0.351770 0.124350 
-2.127660 17.529320 -3.289290 -4.318420 -10.923802 -2.113191 -15.010881 11.305875 4.303062 29.353175 -0.106677 -24.390804 -17.539167 18.880525 39.448796 0.642536 9.840654 0.591782 0.915290 1.109060 0.812500 18.665816 -9.358040 3.990945 -18.134693 11.190483 -34.783121 19.125877 -15.889402 44.664406 -1.531983 -7.779634 1.157584 0.419700 -0.479500 0.274250 -4.427415 0.172255 -8.985638 24.254906 -9.485798 32.513428 -17.801713 -0.518965 14.535328 12.975235 3.688449 -18.885130 15.767567 -15.476284 87.779551 -7.888270 -10.399070 -16.617660 -34.297344 -28.360749 9.827656 -37.112231 -2.803401 -5.227238 -2.457269 -9.441259 -1.100115 -3.035416 2.860743 0.578960 -0.461840 0.870090 0.108970 9.182686 32.321654 7.678927 53.799214 27.999006 -0.150090 -2.653108 16.901821 -1.373607 2.551065 -1.183867 0.351140 0.259040 -0.342320 0.099380 
-2.084830 17.526660 -3.298590 -4.648321 -10.408828 -1.455970 -15.050013 11.267616 4.400415 29.481608 -0.008035 -25.535157 -17.596623 19.028507 39.640583 0.637633 9.926784 0.552748 0.856140 1.039870 0.773760 18.656298 -9.241934 3.987978 -17.798848 11.374532 -35.372801 18.457355 -15.652540 44.899009 -1.491060 -7.751975 1.186813 0.371080 -0.453660 0.299750 -4.368375 -0.024161 -9.057813 23.327310 -8.822820 32.390521 -16.549080 -0.235249 14.003481 12.391227 2.644521 -18.230947 11.334649 -11.280411 89.428113 -10.243790 -8.143420 -14.496090 -33.016531 -27.644870 9.366701 -39.628422 -2.931795 -5.622066 -1.873757 -10.472341 -1.168340 -3.121614 2.860922 0.557190 -0.409940 0.839100 0.087550 9.144468 31.880136 7.841764 54.310359 26.016643 -1.285939 -1.632509 17.672616 -1.338081 2.532044 -1.171300 0.350920 0.231540 -0.293790 0.089410 
-2.041300 17.522440 -3.302780 -5.022854 -10.041719 -0.857080 -15.079727 11.275234 4.458099 29.394300 0.094696 -26.556743 -17.203413 19.118993 40.176752 0.622531 10.046366 0.526174 0.755160 0.913990 0.734990 18.647129 -9.157236 3.977849 -17.222808 11.598665 -35.770073 17.610316 -15.259934 45.003708 -1.434114 -7.658706 1.246779 0.293250 -0.386140 0.320060 -4.319689 -0.214478 -9.097484 22.315863 -8.109909 32.321645 -15.702715 0.174030 13.303686 11.786193 1.653835 -17.664780 7.011040 -6.734588 90.794452 -12.656450 -5.033020 -12.399920 -32.126801 -26.776827 8.940957 -41.572688 -2.815059 -6.004623 -0.961021 -11.382112 -1.286497 -3.237368 2.795304 0.551420 -0.339730 0.800230 0.057990 9.403840 31.206790 7.871783 55.327117 24.087125 -2.501264 -0.561360 18.274568 -1.283048 2.514851 -1.116037 0.315930 0.247160 -0.220550 0.073220 
-1.998000 17.532980 -3.320980 -4.818836 -8.717141 -1.337215 -15.101381 11.411204 4.461103 28.706675 -0.361733 -27.134134 -16.515014 18.788586 40.907013 0.393994 10.126332 0.437826 0.683490 0.766040 0.753020 18.611501 -9.184802 3.849464 -17.189922 11.108598 -34.926670 16.765179 -14.912992 44.784885 -1.360413 -7.541156 1.248212 0.274230 -0.383020 0.313190 -4.226604 -0.527257 -9.052131 20.403949 -7.876089 33.377613 -15.259984 0.140600 12.869919 10.908809 0.734453 -17.191203 2.273218 -1.149560 92.250401 -12.954360 -1.510590 -13.453040 -30.685717 -26.535267 8.703479 -42.912422 -3.031356 -6.244404 -0.103401 -12.374767 -1.570865 -3.326272 2.665731 0.688790 -0.317370 0.757730 -0.058960 9.630575 30.614152 7.711182 56.742811 22.768497 -4.115972 0.249560 19.393233 -1.327542 2.430533 -1.026877 0.192300 0.265480 -0.100770 -0.052340 
-1.959070 17.544250 -3.334290 -4.921972 -7.207818 -2.160475 -15.111031 11.568518 4.411700 28.225522 -0.726801 -27.235060 -15.609094 18.261034 41.351924 0.207725 10.078421 0.379298 0.660590 0.696320 0.786450 18.589075 -9.218899 3.722421 -16.786079 10.775398 -33.989712 15.730446 -14.687458 45.310444 -1.337557 -7.501627 1.220570 0.272360 -0.407930 0.303170 -4.171491 -0.841536 -8.966956 18.742841 -7.911528 34.765550 -14.790590 -0.025320 12.384811 9.616169 -0.771530 -17.006185 -5.217472 6.226719 93.058891 -12.076640 1.366300 -15.418610 -29.473624 -26.342756 8.495534 -44.198040 -3.294177 -6.804669 1.481162 -14.165752 -1.981045 -3.345362 2.599240 0.806670 -0.338490 0.751780 -0.152050 10.884079 30.361389 7.686620 57.093009 20.947808 -5.950080 1.460532 20.481360 -1.300960 2.390486 -0.938467 0.118380 0.274520 -0.021860 -0.138570 
-1.921900 17.556500 -3.332890 -4.805335 -5.407693 -2.835229 -15.111464 11.744578 4.337011 27.433026 -1.119633 -27.221203 -14.773833 17.679546 41.457656 0.077515 9.967733 0.385963 0.620810 0.607960 0.778160 18.564155 -9.268411 3.612893 -16.872931 10.285882 -32.982829 15.372140 -14.630397 45.386578 -1.311953 -7.493683 1.192705 0.266480 -0.415270 0.285490 -4.126075 -1.134878 -8.882670 16.755403 -7.565628 35.826336 -14.223821 -0.010372 11.079552 8.162676 -1.790232 -17.082167 -11.922730 12.682579 92.534820 -10.942180 4.010220 -15.337840 -30.542245 -25.730014 8.042394 -43.091625 -3.060029 -6.451056 1.112305 -13.526054 -1.955965 -3.352945 2.558487 0.890510 -0.353390 0.732120 -0.195380 14.645128 29.451388 7.763235 56.178626 17.297911 -8.541573 3.632760 22.561632 -1.236139 2.367025 -0.881670 0.039590 0.269690 0.027160 -0.202010 
-1.883570 17.555190 -3.307080 -4.572063 -3.520559 -3.405666 -15.109278 11.853923 4.290346 26.718610 -1.513329 -27.364545 -14.241494 17.391063 41.746610 0.041314 9.929436 0.415073 0.595350 0.541760 0.758790 18.552924 -9.337936 3.468515 -17.170798 9.612434 -31.881339 14.941625 -14.621475 45.613852 -1.294334 -7.510480 1.175701 0.258900 -0.381340 0.251610 -4.111116 -1.337012 -8.783303 14.788469 -7.126594 36.424870 -13.137370 -0.259528 8.879346 6.245379 -2.909526 -16.694212 -19.380339 19.931239 90.317525 -8.023490 6.415520 -14.286540 -31.618309 -23.877373 7.383501 -42.592260 -2.130607 -6.559086 -0.101497 -14.035222 -1.950425 -3.330402 2.551735 0.937810 -0.372380 0.701190 -0.191830 19.438273 27.063847 7.450229 54.403551 13.393591 -10.356222 6.917975 23.659821 -0.852444 2.396283 -0.839846 -0.026980 0.287780 0.041870 -0.223530 
-1.844700 17.553040 -3.267740 -4.457815 -0.805792 -3.933982 -15.073658 11.887006 4.239400 25.923913 -2.104408 -27.874514 -13.256777 16.975439 42.581839 0.036501 9.856245 0.443903 0.583890 0.526580 0.717430 18.575807 -9.485842 3.308562 -17.715683 8.609453 -30.537288 14.951267 -14.839626 45.435776 -1.286828 -7.545913 1.140070 0.267510 -0.359100 0.220500 -4.197576 -1.314166 -8.672468 13.868677 -6.934472 36.744735 -12.580817 -0.533794 6.364437 4.458090 -3.231940 -16.102320 -25.125000 26.200473 87.563774 -4.171540 8.619800 -12.859360 -32.884335 -21.800587 6.721578 -40.962183 -1.095250 -6.686435 -2.558459 -14.892970 -1.791921 -3.283409 2.606637 0.951580 -0.398790 0.682480 -0.175260 24.173989 23.605894 6.852913 53.192105 8.735584 -12.487684 9.863341 25.395884 -0.589541 2.427698 -0.845985 -0.059340 0.284090 0.041750 -0.217260 
